<svg xmlns="http://www.w3.org/2000/svg" xmlns:xlink="http://www.w3.org/1999/xlink" viewBox="0 0 512 418.16"><defs><clipPath id="clip-path" transform="translate(0 0)"><rect class="cls-1" width="512" height="418.16"/></clipPath></defs><title>Ресурс 1</title><g id="_2" data-name=" 2"><g id="_1-2" data-name=" 1"><g class="cls-2"><path class="cls-3" d="M405.39,331.34a43.41,43.41,0,1,0,43.41,43.41,43.45,43.45,0,0,0-43.41-43.41" transform="translate(0 0)"/><path class="cls-3" d="M173.65,331.34a43.41,43.41,0,1,0,43.41,43.41,43.45,43.45,0,0,0-43.41-43.41" transform="translate(0 0)"/><path class="cls-3" d="M507.93,94.17a19.14,19.14,0,0,0-15.08-7.35H220.7l9.15,38.31H468.38l-37.12,150h-268L101,14.7A19.16,19.16,0,0,0,82.35,0H19.15a19.15,19.15,0,0,0,0,38.3H67.24l62.24,260.45a19.16,19.16,0,0,0,18.63,14.7H446.24a19.14,19.14,0,0,0,18.59-14.55l46.61-188.32a19.21,19.21,0,0,0-3.51-16.41" transform="translate(0 0)"/></g></g></g></svg>