<svg xmlns="http://www.w3.org/2000/svg" xmlns:xlink="http://www.w3.org/1999/xlink" viewBox="0 0 510.13 481.25"><defs><clipPath id="clip-path" transform="translate(0 0)"><rect class="cls-1" width="510.13" height="481.24"/></clipPath></defs><title>Ресурс 1</title><g id="Слой_2" data-name="Слой 2"><g id="Слой_1-2" data-name="Слой 1"><g class="cls-2"><path class="cls-3" d="M255.07,0a43.41,43.41,0,1,0,43.41,43.41A43.45,43.45,0,0,0,255.07,0" transform="translate(0 0)"/><path class="cls-3" d="M510.13,156.68c-14.61,0-38.48-6.6-71.52-15.73-51.89-14.33-122.94-34-183.54-34S123.41,126.62,71.53,141C38.48,150.08,14.61,156.68,0,156.68V118.39c9.42,0,34.63-7,61.32-14.35,54-14.92,128-35.36,193.75-35.36S394.81,89.12,448.81,104c26.69,7.38,51.9,14.35,61.32,14.35Z" transform="translate(0 0)"/><path class="cls-3" d="M459.07,481.24h-408A31.18,31.18,0,0,1,19.92,450.1V247.77H10V209.48H27.07a31.18,31.18,0,0,1,31.14,31.14V443H451.92V240.62a31.18,31.18,0,0,1,31.14-31.14h17.07v38.29h-9.92V450.1a31.18,31.18,0,0,1-31.14,31.14" transform="translate(0 0)"/></g></g></g></svg>