<svg id="logo" xmlns="http://www.w3.org/2000/svg" width="502.344" height="355.91" viewBox="0 0 502.344 355.91">
  <defs>
    <style>
      .cls-1 {
        fill: #4fb024;
      }

      .cls-1, .cls-2 {
        fill-rule: evenodd;
      }

      .cls-2 {
        fill: #807972;
        mix-blend-mode: multiply;
      }
    </style>
  </defs>
  <path class="cls-1" d="M560.052,2829.41s-65.032,17.88-63.783-96.08c14.582,8.83,34.864,12.55,48.792,14.48s30.281,14.87,34.4,31.41-6.268,38.91-6.268,38.91-5.285-35.95-41.9-40.21C551.779,2793.6,560.612,2819.57,560.052,2829.41Zm-25.623-92.28s-5.841-68.35,97-101.56c3.85,47.26,28.648,89.52,19.984,123.02s-36.48,53.72-60.7,55.16c-6.272-30.8-2.317-97.67,20.683-130.51-12.089,5.43-36.822,32.21-40.057,63.34C562.756,2740.89,543.772,2737.18,534.429,2737.13Z" transform="translate(-225.281 -2635.56)"/>
  <path class="cls-2" d="M273.761,2807.78l25.515-3.14c-1.019,8.61-6.933,15.57-15.912,16.67-7.29.89-12.44-1.36-17.975-5.28l-7.321,10.19c7.241,6.06,15.245,8.78,27.247,7.31,18.313-2.25,30.179-18.06,27.963-36.11-2.172-17.7-17.286-30.56-36.4-28.21-11.2,1.38-17.622,6.41-22.579,12.34l8.714,8.5c4.2-4.76,9.238-7.82,15.461-8.58,8.623-1.06,16.1,3.98,19.315,11.8l-25.425,3.12Zm55.52,19.26,13.691-1.68-2.336-19.03,6.284-8.35,22.544,24.13,16.446-2.02-30.891-32.59,22.095-29.52-16.536,2.03-21.907,30.32-3.34-27.22-13.691,1.68Zm90.814-10.07c19.2-2.36,31.38-18.56,29.208-36.26-2.194-17.88-17.731-30.5-36.933-28.14s-31.381,18.57-29.208,36.26C385.356,2806.71,400.892,2819.33,420.1,2816.97Zm-1.372-12.65c-11.024,1.36-19.939-6.57-21.249-17.25-1.331-10.84,5.245-20.5,16.268-21.85s19.938,6.58,21.248,17.25C436.322,2793.32,429.746,2802.97,418.723,2804.32Zm-193.441-53.1,247.573-30.41,13.882,113.09-247.574,30.41Z" transform="translate(-225.281 -2635.56)"/>
  <path id="Rectangle_5_copy" data-name="Rectangle 5 copy" class="cls-2" d="M315.98,2962.76l13.424-1.65-4.956-40.37,20.566,24.2,0.356-.05,14.249-28.74,4.989,40.64,13.6-1.67-7.64-62.25-14.758,1.81-13.126,28.34L323.1,2898.7l-14.757,1.81Zm71.836-8.82,13.957-1.71,3.976-14.66,26.314-3.24,7.4,13.27,14.313-1.76-34.365-59.42-12.624,1.55Zm21.338-29.07,5.79-21.2,10.745,19.17Zm54.231,19.79,13.69-1.68-2.292-18.68,10.4-1.28c13.958-1.71,24.242-10.55,22.474-24.96-1.583-12.9-11.643-20.6-26.489-18.77l-25.425,3.12Zm9.9-32.54-2.336-19.03,10.579-1.3c6.845-.84,11.516,1.93,12.269,8.06,0.677,5.52-2.821,10.1-9.667,10.94Zm49.486,25.24,13.69-1.68-2.336-19.03,6.284-8.35,22.545,24.13,16.446-2.02-30.891-32.58,22.094-29.53-16.535,2.03-21.907,30.32-3.34-27.22-13.691,1.69Zm64.9-7.97,47.383-5.82-1.5-12.18-33.782,4.15-1.6-13.07,29.337-3.61-1.5-12.18-29.337,3.6-1.55-12.62,33.337-4.1-1.5-12.18-46.939,5.76Zm74.057-9.09,13.691-1.68-6.091-49.63,18.936-2.32-1.55-12.63-51.562,6.33,1.55,12.63,18.935-2.32Zm-383.376-41.93,435.388-53.47,13.881,113.09-435.388,53.47Z" transform="translate(-225.281 -2635.56)"/>
</svg>
