<svg xmlns="http://www.w3.org/2000/svg" xmlns:xlink="http://www.w3.org/1999/xlink" viewBox="0 0 681.84 50.47"><defs><style>.cls-1{fill:none;}.cls-2{fill:#1a2791;}.cls-3{fill:#fd0;}.cls-4{clip-path:url(#clip-path);}.cls-5{fill:#49a942;}</style><clipPath id="clip-path" transform="translate(0 0)"><rect class="cls-1" width="681.84" height="50.47"/></clipPath></defs><title>Ресурс 1</title><g id="Слой_2" data-name="Слой 2"><g id="Слой_1-2" data-name="Слой 1"><polygon class="cls-2" points="0 0 0 50.47 673.31 50.47 681.84 25.24 673.31 0 0 0"/><path class="cls-3" d="M638.27,12.62H619v6.31h6.49V37.85h6.31V18.93h6.49Zm-28.2,8.91h-8.9V12.62h-6.31v8.91H593v6.3h1.84v10h6.31v-10h8.9v10h6.31V12.62h-6.31Zm-31.52,6.3h11.87v-6.3H578.53V18.92h12.25V12.62H572.23V37.85h18.93V31.54H578.55Zm-34.15,10h6.68l6.43-18.93h5.08V37.85h6.68V12.62H552.94ZM652,12.62h-7.79l-3.9,11.51h-4.27v6.3h2.15l-2.52,7.42H642l2.5-7.42h7.22l2.52,7.42h6.3Zm-5.39,11.51,1.48-4.37,1.49,4.37Z" transform="translate(0 0)"/><g class="cls-4"><path class="cls-3" d="M540.68,16.21c-.25-.07,2.57-1.43,2.56-2,0-1.29-2.81-2.37-5.77-2.32-.26,0-.06-1.42-.71-2.77-.49-.81-.6-1-3.61.19-.34-1.18-1.8-4.91-4.55-1.32-.45-.56-.79-1.31-1.64-1.68A6.45,6.45,0,0,0,525.62,8a5.66,5.66,0,0,0-3.13-1.08c-.2.15-.25.87-.36,2A8.59,8.59,0,0,0,519,8.68a6.39,6.39,0,0,0,.93,2.05,5.39,5.39,0,0,0-2.94.87c0,.23,0,1,2,2.51a3.89,3.89,0,0,0-2.12,1.5c-.2,1.28,2.33,2.64,3,3-.62,1.13-1.1,2.71-.81,3.29A5.26,5.26,0,0,0,522.86,23a2.3,2.3,0,0,0-.18.7.68.68,0,0,0,0,.15,3.54,3.54,0,0,1-.3,1,1,1,0,0,0-.12.52h0c.07.56,1.42,1,2.44,1a9,9,0,0,0,1,0h0a6.25,6.25,0,0,0,2.5-.82,3.34,3.34,0,0,0,.39-.32c.44.82,1.53,2.21,4.3,3.33a8.86,8.86,0,0,0,1.37-2.1c.31.38,2.41,1.81,4.08,1.49.75-.62.64-3.39.64-3.39a7.88,7.88,0,0,0,2.78.49c.33,0,.83,0,1-.55a3.85,3.85,0,0,0,0-1.78,5.92,5.92,0,0,0-1.38-2,5.11,5.11,0,0,0,3-1.57c.14-.64-2-2.34-3.72-2.85m-4.07,4.33-1.05.23-.12.87-1.2-.07-.49.72-1.22-.36-.81.49-1.13-.61-1.05.22-.94-.79-1.2-.09-.62-.91-1.24-.37-.27-.93-1.13-.63.11-.85-.93-.83.49-.72-.62-.92.8-.5-.27-.94,1-.23.12-.87,1.2.07.48-.71,1.23.35.8-.49,1.13.61,1.06-.22.93.8,1.2.08.63.91,1.24.37.27.94,1.12.61-.11.88.92.81-.47.72.62.92-.8.49Z" transform="translate(0 0)"/><path class="cls-5" d="M537.33,34.26a5.59,5.59,0,0,0-7.25-.41A10.92,10.92,0,0,0,527.51,36c.35-1.72.9-4.13,1-5,.21-1.21.74-4.59,0-5-.19-.07-.22-.09-.3.6a20.12,20.12,0,0,1-1.17,4.62c-.46,1.5-.73,2.27-1,3-.36-1.29-1.34-2.83-3.64-4.44-.7-.41-3.59-2.88-7.25.47-.31.34-.63.9.17,1.39A2.34,2.34,0,0,1,516.65,33a4.36,4.36,0,0,0,4,2.93c3,.24,3.61.66,4.11,1.07a3.39,3.39,0,0,0,.54.42,1.52,1.52,0,0,1,0,.21s-.44,3.84.55,5.3c1.09,1.63,2.24,1.17,2.24,1.17a7.76,7.76,0,0,1-1-3.26,3.44,3.44,0,0,0,.62-.42c.64-.5,1.12-.76,4.12-1a4.26,4.26,0,0,0,4-2.65c.21-.55.46-.81,1.26-1.26s.48-1,.17-1.26m-21-3.43a7.65,7.65,0,0,1,8.49,3.88,12.71,12.71,0,0,0-8.49-3.88m11.29,7.44c1.09-1.81,3.26-4.2,8.49-3.54,0,0-6.06.74-8.49,3.54" transform="translate(0 0)"/></g></g></g></svg>