<svg xmlns="http://www.w3.org/2000/svg" xmlns:xlink="http://www.w3.org/1999/xlink" viewBox="0 0 410.41 479.66"><defs><style>.cls-4{stroke-linecap:round;stroke-linejoin:round;stroke-width:38.3px;}</style><clipPath id="clip-path" transform="translate(0 0)"><rect class="cls-1" width="410.41" height="479.66"/></clipPath></defs><title>Ресурс 1</title><g id="Слой_2" data-name="Слой 2"><g id="Слой_1-2" data-name="Слой 1"><g class="cls-2"><path class="cls-3" d="M104.41,111.14a30.39,30.39,0,1,0,30.38,30.39,30.42,30.42,0,0,0-30.38-30.39" transform="translate(0 0)"/><path class="cls-3" d="M104.41,209.44a30.39,30.39,0,1,0,30.38,30.39,30.42,30.42,0,0,0-30.38-30.39" transform="translate(0 0)"/><path class="cls-3" d="M104.41,307.74a30.39,30.39,0,1,0,30.38,30.39,30.42,30.42,0,0,0-30.38-30.39" transform="translate(0 0)"/><path class="cls-3" d="M372.12,441.36H38.3V38.3H372.12ZM377.82,0H32.59A32.59,32.59,0,0,0,0,32.59V447.07a32.59,32.59,0,0,0,32.59,32.59H377.82a32.59,32.59,0,0,0,32.59-32.59V32.59A32.59,32.59,0,0,0,377.82,0" transform="translate(0 0)"/><line class="cls-4" x1="189.35" y1="141.53" x2="326.67" y2="141.53"/><line class="cls-4" x1="189.35" y1="238.05" x2="326.67" y2="238.05"/><line class="cls-4" x1="189.35" y1="334.58" x2="326.67" y2="334.58"/></g></g></g></svg>