<svg xmlns="http://www.w3.org/2000/svg" xmlns:xlink="http://www.w3.org/1999/xlink" viewBox="0 0 371.23 140.36"><defs><style>.cls-1{isolation:isolate;}.cls-2,.cls-5{fill:#ea0029;}.cls-12,.cls-3{fill:#fff;}.cls-10,.cls-3,.cls-4,.cls-5,.cls-6,.cls-7,.cls-8{fill-rule:evenodd;}.cls-4{fill:#d02030;}.cls-6{fill:url(#GradientFill_2);}.cls-7,.cls-8,.cls-9{opacity:0.5;mix-blend-mode:multiply;}.cls-7{fill:url(#linear-gradient);}.cls-8{fill:url(#linear-gradient-2);}.cls-10{fill:none;}.cls-11{fill:#242023;}</style><linearGradient id="GradientFill_2" x1="5.02" y1="63.13" x2="348.78" y2="63.13" gradientUnits="userSpaceOnUse"><stop offset="0" stop-color="#b92025"/><stop offset="0.55" stop-color="#eb2227"/><stop offset="1" stop-color="#b92025"/></linearGradient><linearGradient id="linear-gradient" x1="56.15" y1="115.52" x2="297.68" y2="115.52" gradientUnits="userSpaceOnUse"><stop offset="0" stop-color="#b3b5b8"/><stop offset="0.03" stop-color="#bbbdbf"/><stop offset="0.13" stop-color="#d4d5d7"/><stop offset="0.24" stop-color="#e6e7e8"/><stop offset="0.35" stop-color="#f1f2f3"/><stop offset="0.48" stop-color="#f4f5f6"/><stop offset="0.6" stop-color="#eff1f2"/><stop offset="0.74" stop-color="#e2e3e5"/><stop offset="0.88" stop-color="#ccced0"/><stop offset="1" stop-color="#b3b5b8"/></linearGradient><linearGradient id="linear-gradient-2" x1="5.02" y1="63.13" x2="348.78" y2="63.13" gradientUnits="userSpaceOnUse"><stop offset="0" stop-color="#b3b5b8"/><stop offset="0.19" stop-color="#c6c9cb"/><stop offset="0.48" stop-color="#f4f5f6"/><stop offset="0.72" stop-color="#c6c9cb"/><stop offset="1" stop-color="#b3b5b8"/></linearGradient></defs><title>Ресурс 1</title><g class="cls-1"><g id="Слой_2" data-name="Слой 2"><g id="FACE"><path class="cls-2" d="M362.15,0a9.36,9.36,0,0,1,4.47,1.17A8.43,8.43,0,0,1,370,4.53a9.12,9.12,0,0,1,0,9.08A8.49,8.49,0,0,1,366.67,17a9.11,9.11,0,0,1-9,0,8.49,8.49,0,0,1-3.36-3.36,9.23,9.23,0,0,1-1.21-4.52,9.29,9.29,0,0,1,1.23-4.56,8.46,8.46,0,0,1,3.4-3.36A9.32,9.32,0,0,1,362.15,0Zm0,1.51a7.67,7.67,0,0,0-3.72,1,7.08,7.08,0,0,0-2.84,2.8,7.56,7.56,0,0,0,0,7.57,7.14,7.14,0,0,0,2.81,2.8,7.52,7.52,0,0,0,7.53,0,7.11,7.11,0,0,0,2.8-2.8,7.6,7.6,0,0,0,0-7.57,7,7,0,0,0-2.83-2.8A7.67,7.67,0,0,0,362.15,1.51Zm-4,12.61V4.33h3.37A8.2,8.2,0,0,1,364,4.6a2.46,2.46,0,0,1,1.23,1A2.55,2.55,0,0,1,365.71,7a2.61,2.61,0,0,1-.77,1.87,3,3,0,0,1-2,.89,2.68,2.68,0,0,1,.83.52,11.48,11.48,0,0,1,1.44,1.94l1.19,1.92h-1.93l-.87-1.54a8.16,8.16,0,0,0-1.64-2.28,2,2,0,0,0-1.26-.34h-.93v4.16Zm1.58-5.5h1.92a3.14,3.14,0,0,0,1.88-.41,1.36,1.36,0,0,0,.5-1.09,1.33,1.33,0,0,0-.24-.78,1.47,1.47,0,0,0-.67-.52,5.09,5.09,0,0,0-1.59-.17h-1.8Z"/><path class="cls-3" d="M4.69,19.67c38.45-2.58,77-3.92,115.54-4.33,76.27-.81,152.91,1.94,228.94,7.88l4.64.37V103.2l-5.52-.55q-22.62-2.22-45.23-3.58l-.21,29.74c-12.37-.47-24.71-.86-37.08-1q-49.09-.73-98.07,2.1c-39.2,2.22-78.08,6-117.07,10.49L50.87,106Q28.25,108.25,5.63,111L0,111.71V20Z"/><path class="cls-3" d="M4.69,19.67c38.45-2.58,77-3.92,115.54-4.33,76.27-.81,152.91,1.94,228.94,7.88l4.64.37V103.2l-5.52-.55q-22.62-2.22-45.23-3.58l-.21,29.74c-12.37-.47-24.71-.86-37.08-1q-49.09-.73-98.07,2.1c-39.2,2.22-78.08,6-117.07,10.49L50.87,106Q28.25,108.25,5.63,111L0,111.71V20Z"/><path class="cls-4" d="M297.46,98.74l-.17,24.54c-75.18-2.8-146.77.28-241,11.09l.21-29C136.71,97.45,217,94.22,297.46,98.74Z"/><path class="cls-4" d="M5,24.69C119.61,17,242.94,20,348.78,28.23V97.65C234,86.36,120.71,91.91,5,106Z"/><path class="cls-5" d="M297.46,98.74l-.17,24.54c-75.18-2.8-146.77.28-241,11.09l.21-29C136.71,97.45,217,94.22,297.46,98.74Z"/><path class="cls-6" d="M5,24.69C119.61,17,242.94,20,348.78,28.23V97.65C234,86.36,120.71,91.91,5,106Z"/><path class="cls-5" d="M5,24.69C119.61,17,242.94,20,348.78,28.23V97.65C234,86.36,120.71,91.91,5,106Z"/><path class="cls-7" d="M297.46,98.74l-.17,24.54c-75.18-2.8-146.77.28-241,11.09l.21-29C136.71,97.45,217,94.22,297.46,98.74Z"/><path class="cls-8" d="M5,24.69C119.61,17,242.94,20,348.78,28.23V97.65C234,86.36,120.71,91.91,5,106Z"/><g class="cls-9"><path class="cls-10" d="M5,24.69C119.61,17,242.94,20,348.78,28.23V97.65C234,86.36,120.71,91.91,5,106Z"/></g><path class="cls-11" d="M294.55,65.87a1,1,0,0,0-1.25-.06,8.15,8.15,0,0,1-3.95,1.69c-.51,0-.66-.18-.71-.24s-.45-.76-.12-2.41a90.42,90.42,0,0,1,3.36-11.38c1-2.83,2-5.76,2.69-8.56a1,1,0,0,0-.2-.92,1.07,1.07,0,0,0-.88-.38l-10.21.75a1,1,0,0,0-.85.55c-.55,1-1.15,2.18-1.77,3.37-2.43,4.65-5.18,9.91-7.4,13.21-1.09,1.49-1.82,1.61-2,1.61a.63.63,0,0,1-.48-.25,3.75,3.75,0,0,1-.52-2.76A1,1,0,0,0,269,59l-4.15.95a1,1,0,0,0-.78.79c-.09.39-.16.76-.23,1.13l0,.17a1.06,1.06,0,0,0-1,.09,8.15,8.15,0,0,1-3.09,1.63,7.49,7.49,0,0,1,.33-1c.07-.19.15-.37.19-.5,1.61-4.4,5.53-12,6.84-14.53l.88-1.87a1,1,0,0,0-1.07-1.48l-8.58.85a1.07,1.07,0,0,0-.52.2,12.35,12.35,0,0,0-8.69-.59,18.41,18.41,0,0,0-9.84,6.89,20.53,20.53,0,0,0-1.58,2.6,17.3,17.3,0,0,0-.76,1.86,14.25,14.25,0,0,0-.6,6.2,1.29,1.29,0,0,0-.21-.19,1.05,1.05,0,0,0-1.28.11c-2.08,1.93-3.24,2.34-3.86,2.38-.37-.7.13-3.85,6.92-16.77l1.22-2.21a1.05,1.05,0,0,0,0-1.07,1,1,0,0,0-1-.47l-8.51.63a1.08,1.08,0,0,0-.87.61l-3.76,8.33H223c1.3-3.47,1.39-6.2.25-7.95a4.58,4.58,0,0,0-4.12-2,11.75,11.75,0,0,0-3.47.61,16.39,16.39,0,0,0-2.85,1.48,1,1,0,0,0-.37.4l-2,3.94a.87.87,0,0,0-.11.37,9.74,9.74,0,0,0-6.64-7,13,13,0,0,0-2.51-.25A16,16,0,0,0,187,52.66a14.58,14.58,0,0,0-1,7.76,9.67,9.67,0,0,0,.49,1.9,8.14,8.14,0,0,0,.55,1.33,9.7,9.7,0,0,0,6.25,5,12.59,12.59,0,0,0,5.62.1,15.24,15.24,0,0,0,9.46-7.36,16.65,16.65,0,0,0,2-10.14.92.92,0,0,0,.28.31,1,1,0,0,0,1.35-.1,6.91,6.91,0,0,1,2.58-1.19c0,.1-.07.23-.13.39a140.59,140.59,0,0,1-6.13,13.15L206.62,67l-.31.48a1,1,0,0,0,.88,1.61h8.61a1,1,0,0,0,.95-.62L221,59.1h1.91a8.57,8.57,0,0,0,1.29,7.27,6.55,6.55,0,0,0,5.36,2.55A17.53,17.53,0,0,0,234.4,68a1,1,0,0,0,.68-.66l1.37-3.9a7.71,7.71,0,0,0,3.07,4.88,8.91,8.91,0,0,0,2.13,1,9.56,9.56,0,0,0,8.21-1.17,12.7,12.7,0,0,0,1.8-1.39,7.11,7.11,0,0,0,5.85,2.89,9.11,9.11,0,0,0,4.91-1.51,1,1,0,0,0,.42-.53l.79-2.26a8.88,8.88,0,0,0,.23,1.27,5.24,5.24,0,0,0,2,2.66,6,6,0,0,0,3.37.9,11.11,11.11,0,0,0,5.14-1.34,13.93,13.93,0,0,0,4.8-4.21c-1.05,3.81-1.46,6.83-.14,8.76a4.54,4.54,0,0,0,3.69,1.83h.71A18.88,18.88,0,0,0,292,73a1.08,1.08,0,0,0,.5-.53l2.34-5.43A1,1,0,0,0,294.55,65.87ZM194.1,62.05c-.56-1.43-.67-4.26.82-7.45a11.94,11.94,0,0,1,4.28-5.11,7,7,0,0,1,3.62-.93c.07,0,.18,0,.33.25.63,1,.59,4.39-1.47,8.35A16.27,16.27,0,0,1,198,62.24c-1.19.95-2.31,1.3-3,1A2.06,2.06,0,0,1,194.1,62.05Zm58.51-5.69a19.62,19.62,0,0,1-4,6.28,3.48,3.48,0,0,1-2.29,1.2h-.18a1.16,1.16,0,0,1-.9-.63c-.75-1.16-1-3.92.09-7.25a12,12,0,0,1,4.59-6,5.78,5.78,0,0,1,3-1.1,2.73,2.73,0,0,1,.64.07s.17,0,.31.33C254.36,50.33,254.18,53,252.61,56.36Z"/><path class="cls-11" d="M124.58,62.09a8.18,8.18,0,0,1-3.1,1.63,7.49,7.49,0,0,1,.33-1c.08-.19.15-.37.19-.5a155,155,0,0,1,6.84-14.53l.89-1.87a1,1,0,0,0-1.08-1.48l-8.58.85a1.07,1.07,0,0,0-.52.2,12.35,12.35,0,0,0-8.69-.59A18.41,18.41,0,0,0,101,51.71a19.33,19.33,0,0,0-1.57,2.6,15.55,15.55,0,0,0-.77,1.86,13.21,13.21,0,0,0,.39,9.53l0,0a1.05,1.05,0,0,0-1.26,0,7.94,7.94,0,0,1-4.05,1.69,1,1,0,0,1-.84-.29,2.93,2.93,0,0,1,.1-2.25l7.12-21.89c.2-.57.39-1.12.56-1.66.26-.81.51-1.63.71-2.38l.1-.26a29.82,29.82,0,0,1,1.34-3.34A3.78,3.78,0,0,1,105.1,33a1,1,0,0,0,.78-1.17,1.06,1.06,0,0,0-1.11-.88l-10.31.75a1.05,1.05,0,0,0-.91.68L86.36,52H80.12l4-12.22c1.28-3.82,2-6.24,1.28-7.69a2,2,0,0,0-1.12-1,1.1,1.1,0,0,0-.85.08c-1.17.67-3.77.8-6.53.93-7,.34-17.58.85-19.61,11.38a1,1,0,0,0,.71,1.19,1,1,0,0,0,1.26-.57c1.29-2.89,7.55-6.56,12.77-6.56a10.86,10.86,0,0,1,1.84.16L68.89,52c-6.57.33-8.79,3.55-10,6.35a1,1,0,0,0,1.55,1.26c1.19-.84,3.85-1.36,6-1.6-2.78,8.46-7,20.17-15.72,24.73-3.06,1.63-5.45,1.38-6.79-1-1.57-2.73-.74-6.3-.11-8.17,1.24-3.67,3.52-6.57,4.92-7.16a1,1,0,0,0-.45-2L37.67,65a1.06,1.06,0,0,0-.57.2,14.66,14.66,0,0,0-6,10.62V77.5a10,10,0,0,0,4.39,7.91C37.93,87,41.43,87.8,46,87.8a51.51,51.51,0,0,0,6.24-.42c15.55-1.85,23-20.56,25.65-29.35h6.77c-.4,1.36-.8,2.62-1.16,3.78C81.67,67.6,80.58,71.1,82,73.2c.76,1.09,2.08,1.64,4.12,1.75A20,20,0,0,0,96.5,72.81,1.08,1.08,0,0,0,97,72.3l2.34-5.43a1.07,1.07,0,0,0,.06-.61,6.6,6.6,0,0,0,2,2,8.91,8.91,0,0,0,2.13,1,9.56,9.56,0,0,0,8.21-1.17,12.7,12.7,0,0,0,1.8-1.39,7.11,7.11,0,0,0,5.85,2.89,9.11,9.11,0,0,0,4.91-1.51,1.06,1.06,0,0,0,.42-.53l1.49-4.26a1,1,0,0,0-.35-1.17A1.05,1.05,0,0,0,124.58,62.09Zm-10.15-5.73a19.62,19.62,0,0,1-4,6.28,3.48,3.48,0,0,1-2.29,1.2h-.18a1.16,1.16,0,0,1-.9-.63c-.75-1.16-1-3.92.09-7.25a12,12,0,0,1,4.59-6,5.78,5.78,0,0,1,3-1.1,2.73,2.73,0,0,1,.64.07s.18,0,.31.33C116.18,50.33,116,53,114.43,56.36Z"/><path class="cls-11" d="M323.11,73.69c-.43-4.22-4-8.49-10.92-8.49h-.63a10.21,10.21,0,0,0-2.28.48,13,13,0,0,0-6.9,6.78s0-.11.05-.16a126.24,126.24,0,0,1,6.26-15q.94-2,1.89-4c1.36-3,2.48-5.58,3.42-7.92a1,1,0,0,0-.12-1,1.08,1.08,0,0,0-.88-.44l-9.91.43a1,1,0,0,0-1,.84,1,1,0,0,0,.6,1.15.84.84,0,0,1,0,.52c-1,2.87-2.23,5.89-3.56,9.09-2.27,5.43-4.62,11-5.51,16.06a11.42,11.42,0,0,0,2.24,9.08c2.3,2.91,6,4.65,10.42,4.91q.6,0,1.23,0c7.13,0,14.73-3.25,15.62-10.65Zm-12.9-3.39a3,3,0,0,1,1.62-.57l0-1h0v1c.33,0,.57.55.65.78.92,2.51-.16,8.32-3.55,11.21-.36.3-.72.58-1.06.82a3.24,3.24,0,0,1-1.34-2.45C306.06,76.92,307.53,72,310.21,70.3Z"/><path class="cls-11" d="M184.94,62.36a4.89,4.89,0,0,1-2.83.93,2.77,2.77,0,0,1-.42,0c-1.89-1.8,2.81-9.7,5.1-13.53l1.18-2,1.08-1.93a1,1,0,0,0-1-1.55l-10,.53a1,1,0,0,0-.91.66l-.59,1.5c-1.63,4.15-6.52,16.65-9.87,17.49,0,0-.06-.06-.09-.11-.54-1.12.17-5,6.58-16.92.43-.8.74-1.38.88-1.67a1,1,0,0,0-.08-1,1,1,0,0,0-.92-.46l-9.68.53a1,1,0,0,0-.9.64L162,46.64c-2.07,4.82-4.64,10.81-4,16.73a6.59,6.59,0,0,0,.22,1.16,18.68,18.68,0,0,0-1.6-3,1,1,0,0,0-1-.48,1,1,0,0,0-.87.7,4.68,4.68,0,0,1-2.07,2.5,4.1,4.1,0,0,1-2.81.31,6.92,6.92,0,0,1,.76-2.26c.17-.38.31-.7.32-.76l6.91-15.86a1,1,0,0,0-1-1.45l-10.1.53a1,1,0,0,0-.91.65c-.3.75-.65,1.66-1,2.67-2.05,5.44-5.88,15.55-9.71,15.56h-.12c-.36-2,4.25-11.23,6-14.77.65-1.3,1.2-2.4,1.55-3.16a1,1,0,0,0-.09-1,1,1,0,0,0-.91-.45l-9.69.53a1.06,1.06,0,0,0-.91.66,84.72,84.72,0,0,0-3.23,9.39c-.34,1.33-.54,2.29-.8,3.82a15.47,15.47,0,0,0,0,4.33,10,10,0,0,0,.87,3c.73,1.57,2.38,3.45,6,3.45,2.82,0,5.48-1.6,8.11-4.87a7.72,7.72,0,0,0,7.59,4.93,5.78,5.78,0,0,0-1.22,4,2.86,2.86,0,0,0,2.88,2.27c.2,0,.41,0,.62,0a9.68,9.68,0,0,0,1.67-.17A7.77,7.77,0,0,0,158,71.86a7,7,0,0,0,.86-5.09,13.46,13.46,0,0,0-.35-1.33,7.16,7.16,0,0,0,8.07,4.06c3-.68,4.73-2.53,6.33-4.72a6.79,6.79,0,0,0,6.57,4.72,10.81,10.81,0,0,0,4.79-1.26,1.08,1.08,0,0,0,.48-.51l1.81-4.15a1,1,0,0,0-.33-1.25A1,1,0,0,0,184.94,62.36ZM153,72.42a1.75,1.75,0,0,1-.74.23,7.54,7.54,0,0,1,1.88-2.45l.25-.2.32-.27a2.08,2.08,0,0,1,0,.42A3.5,3.5,0,0,1,153,72.42Z"/><path class="cls-12" d="M120.79,61.29a159.08,159.08,0,0,1,6.88-14.63l.37-.78.51-1.09-.51.07-.37,0-7.73.74-.21.53a11.22,11.22,0,0,0-8.82-1h0a17.36,17.36,0,0,0-9.2,6.41l0,.08a18.57,18.57,0,0,0-1.49,2.45,17.68,17.68,0,0,0-.72,1.74c-1.15,3.34-1,8.74,2.21,10.92l0,0a8.76,8.76,0,0,0,1.87.82,8.44,8.44,0,0,0,7.33-1.07h0a14.33,14.33,0,0,0,2.43-2l.22-.21.1.42c1.7,3.19,6,4.26,9.79,1.81l1.49-4.25c-1.39.95-2.66,1.81-3.73,1.81C119.41,64.16,120.47,62.24,120.79,61.29Zm-5.64-5.12a20.66,20.66,0,0,1-4.24,6.59h0a4.21,4.21,0,0,1-3.29,1.49c-2.45-.21-3.3-4.57-1.7-9.25a13,13,0,0,1,5-6.49h0a5.79,5.79,0,0,1,4.45-1.16C117.17,47.77,117.28,51.6,115.15,56.17Z"/><path class="cls-12" d="M311.42,65.64a9.8,9.8,0,0,0-2,.43h0c-6.28,2.23-10.75,13.09-4.68,17.55-3-1.81-4.9-7.66-3.51-12.23,2.23-6.92,5.32-12.87,8.19-19.15v0c1.17-2.54,2.33-5.19,3.39-7.84l-3.39.11h0l-6.49.31s1,.43.53,1.81c-2.66,7.88-7.66,17.24-9,25-1.07,6,3,12.27,11.7,12.77a21.74,21.74,0,0,0,3.31-.08c5.67-.56,11.69-3.39,12.43-9.5V73.2C321.42,69.05,317.91,65.43,311.42,65.64Zm-2,16.27h0a14.76,14.76,0,0,1-1.6,1.17c-4.36-1.06-2.87-11.49,1.6-14.25h0a4,4,0,0,1,2.11-.74C314.71,67.88,314.5,77.54,309.41,81.91Z"/><path class="cls-12" d="M155.47,61.5a5.87,5.87,0,0,1-2.25,2.9,2.38,2.38,0,0,1-.3.18,5.24,5.24,0,0,1-3.94.32c-1.17-.85.53-3.61.75-4.36l3.19-7.24.3-.7,3.42-7.91-3.42.19-.3,0-6.39.32c-2.23,5.53-6.7,19.79-12.23,18.83-2.87-.64,5.11-15.21,7-19.36l-9.68.53a83.56,83.56,0,0,0-3.19,9.27c-.16.63-.29,1.18-.41,1.71s-.25,1.25-.37,2a14.31,14.31,0,0,0,0,4A9.19,9.19,0,0,0,128,63.9c.11.31.24.64.41,1,.78,1.68,2.36,2.84,5.1,2.84,3.84,0,6.81-3.61,8.62-6.27.43,4.78,4.68,7.66,10.32,5.74-2.55,1.28-5.53,6.55-1.49,6.91a7.72,7.72,0,0,0,1.92-.1l.3-.1c3.22-1.11,5.1-5.08,4.38-7.56A13.58,13.58,0,0,0,155.47,61.5Zm-2.23,11.24h0a2.28,2.28,0,0,1-1.58.31c-1.7-.42,0-2.75,1.58-4.24h0c.63-.53,1.25-1.06,1.59-1.28C156.43,69.22,154.92,71.85,153.24,72.74Z"/><path class="cls-12" d="M91.75,63.84l7.13-21.92c.19-.56.38-1.11.55-1.63.26-.8.5-1.6.72-2.41a34.34,34.34,0,0,1,1.49-3.72l0-.11a4.65,4.65,0,0,1,2.93-2.66l-2.93.21-7.39.53L86.85,52.45h-8.4l4.26-12.87c1.17-3.51,2.66-7.55,1.06-8.08-4.68,2.66-23-2.24-25.64,11.59,1.7-3.83,10.64-8.72,16.91-6.7L69.41,52.45c-6.28.11-8.51,2.77-9.79,5.75,1.81-1.28,6.06-1.81,8.08-1.92C64.62,65.75,60.37,78.2,51,83.09c-3.19,1.7-6.38,1.81-8.19-1.38-3.3-5.75,2-15.43,5.32-16.81l-10.64.53A13.58,13.58,0,0,0,32,75.22v1.6a9.07,9.07,0,0,0,3.94,7.12c4.46,3,12.34,2.24,16,1.81,13.4-1.59,21.38-16.91,25-29.36h8.94C82.39,68.09,79.62,73,86,73.31a18.9,18.9,0,0,0,9.79-2l2.34-5.42C94.09,68.73,90.26,68.52,91.75,63.84Z"/><path class="cls-12" d="M287.27,64.05c1.28-6.49,4.36-13.51,6.06-20l-10.21.74c-2.66,5-6.38,12.45-9.25,16.71-2.87,3.93-5.32,1.59-4.9-2.13l-3.41.79-.74.16c-.08.38-.16.74-.22,1.09a10,10,0,0,0,0,4.18,5.1,5.1,0,0,0,1,1.65,3,3,0,0,0,.6.51c2,1.34,5.46.61,7.49-.51,2.45-1.17,5.43-4.25,8.83-11.38-2.76,9.15-6.27,17.23,0,17.66a17.74,17.74,0,0,0,8.83-2l2.34-5.43C289.61,68.84,286.31,68.84,287.27,64.05Z"/><path class="cls-12" d="M208.14,58.44a14.14,14.14,0,0,0,.93-8.12,9.28,9.28,0,0,0-.93-2.26,8.27,8.27,0,0,0-4.91-4,12.37,12.37,0,0,0-4.85,0,15,15,0,0,0-10.62,8.41,11.07,11.07,0,0,0-.45,1.18,14,14,0,0,0-.48,6,8.45,8.45,0,0,0,.45,1.71l0,.1a7.3,7.3,0,0,0,.45,1.07A8.73,8.73,0,0,0,193.34,67a11.74,11.74,0,0,0,5,.11h.06a14.24,14.24,0,0,0,8.83-6.87A12.82,12.82,0,0,0,208.14,58.44ZM202.38,57a16.94,16.94,0,0,1-3.94,5.42l-.06,0c-1.57,1.24-2.93,1.54-4,1.12-2-.85-2.87-5.31-.64-10.1a13.18,13.18,0,0,1,4.62-5.5l.06,0a8,8,0,0,1,4.15-1.07C204.83,46.92,205,51.92,202.38,57Z"/><path class="cls-12" d="M237.43,45.45l.48-.87-.48,0-8,.6-4,8.94h-4.15c3.4-7.66,1.06-11.38-5.43-9.37a16.88,16.88,0,0,0-2.65,1.39l-2,3.93c.75-.74,5.53-3.19,4.15.32a138.4,138.4,0,0,1-6.18,13.27l-.93,1.68L207.27,67c-.1.17-.21.33-.31.49h8.61l4.47-10h4a7.67,7.67,0,0,0,.64,7.66c2.45,3,5.64,2.34,9.15,1.28l1.38-3.94c-1.38,1.28-3.3,2.77-4.78,2.66-2.32-.53.06-6.6,6.22-18.31Z"/><path class="cls-12" d="M181,63.62c-3.46-2.41,3.09-12.23,5.83-17l.48-.84.61-1.08-.61,0-9.4.5C176,50,170.79,64.37,166.43,64.9c-4.58-.85,5.53-18.19,6.49-20.21l-9.68.53c-2,4.79-5.11,11.28-4.47,17.44a6,6,0,0,0,7.34,5.22c3.3-.75,4.89-3.09,6.81-5.85l.21-.21c1,5.95,5.63,7.34,10.42,4.89l1.81-4.15A5.62,5.62,0,0,1,181,63.62Z"/><path class="cls-12" d="M259,61.29a150.44,150.44,0,0,1,6.59-14.06l.29-.57.88-1.87-.88.12-.29,0-7.44.71-.22.53a11.2,11.2,0,0,0-8.81-1h0a17.26,17.26,0,0,0-9.25,6.49,18.57,18.57,0,0,0-1.49,2.45,15.54,15.54,0,0,0-.72,1.74c-.07.19-.12.38-.18.58a12.71,12.71,0,0,0,0,6.92,6.28,6.28,0,0,0,2.39,3.42,8.58,8.58,0,0,0,1.92.85,8.44,8.44,0,0,0,7.33-1.07h0a14.74,14.74,0,0,0,2.43-2l.21-.21.11.42c1.7,3.19,6,4.26,9.79,1.81l1.49-4.25c-1.38.95-2.66,1.81-3.73,1.81C257.59,64.16,258.65,62.24,259,61.29Zm-5.64-5.12a20.66,20.66,0,0,1-4.24,6.59h0a4.21,4.21,0,0,1-3.29,1.49c-2.45-.21-3.3-4.57-1.7-9.25a13,13,0,0,1,5-6.49h0a5.79,5.79,0,0,1,4.45-1.16C255.35,47.77,255.46,51.6,253.33,56.17Z"/><path class="cls-11" d="M112.29,110.73a4.14,4.14,0,0,0-3-1.14c-.14,0-.29,0-.52,0h0A5,5,0,0,0,105,111.7a7.11,7.11,0,0,0-1.18,4.69,5.47,5.47,0,0,0,.63,2.33,3.89,3.89,0,0,0,1.73,1.7,4.45,4.45,0,0,0,2,.46l.53,0h0a4.89,4.89,0,0,0,3.73-2.22,7.14,7.14,0,0,0,1.17-4.45A5,5,0,0,0,112.29,110.73Zm-4.39,6.46a1.65,1.65,0,0,1-.37-1.09,5.31,5.31,0,0,1,.18-1.56,2.8,2.8,0,0,1,.59-1.2,1.17,1.17,0,0,1,.63-.36h0l.21,0a.62.62,0,0,1,.53.22,1.36,1.36,0,0,1,.34.93,4.55,4.55,0,0,1-.6,2.69,1.18,1.18,0,0,1-.8.64h-.16A.71.71,0,0,1,107.9,117.19Z"/><path class="cls-11" d="M224.13,111.33l-1.77-.34a5.26,5.26,0,0,0,1.71-.92,3,3,0,0,0,1-2.35,3.23,3.23,0,0,0-1-2.39,4.22,4.22,0,0,0-3.15-1,3.73,3.73,0,0,0-3.84,3,.77.77,0,0,0,.09.59.72.72,0,0,0,.48.33l1.53.3a8.33,8.33,0,0,0-1.59.63,3.1,3.1,0,0,0-1.17,1.13A3.13,3.13,0,0,0,216,112a3.48,3.48,0,0,0,1,2.46,4,4,0,0,0,3,1.11H220a5.42,5.42,0,0,0,3.09-.81,4.1,4.1,0,0,0,1.6-2.5.72.72,0,0,0-.1-.57A.68.68,0,0,0,224.13,111.33Zm-3.71-3.21c.09-.32.25-.51.77-.52a2.34,2.34,0,0,1,.4,0c0,.09,0,.13,0,.13a5.35,5.35,0,0,1-1.19.42Zm-.93,3.81a6.21,6.21,0,0,1,1.53-.52l.25-.07a.69.69,0,0,0-.05.13,1,1,0,0,1-1.11.81,1,1,0,0,1-.56-.13C219.46,112.08,219.46,112.05,219.49,111.93Zm.53,2.86Z"/><path class="cls-11" d="M102.82,110.38l-2.19.18a.72.72,0,0,0-.67.63l-.57,4.49a10,10,0,0,1-.21,1.21,3.31,3.31,0,0,1-.32.74,2.58,2.58,0,0,1-.4.51,2,2,0,0,1-.39.3.56.56,0,0,1-.39,0,.28.28,0,0,1-.08-.19c0-.07,0-.33.12-1.11l.69-5.58a.73.73,0,0,0-.78-.82l-2.2.17a.73.73,0,0,0-.67.64l-.67,5.26a14.7,14.7,0,0,0-.15,2.06,3.24,3.24,0,0,0,.88,2.19,2.63,2.63,0,0,0,1.93.76H97a4.27,4.27,0,0,0,2-.73l.06.07a.74.74,0,0,0,.59.23l2-.16a.75.75,0,0,0,.68-.64l1.18-9.42a.74.74,0,0,0-.2-.6A.75.75,0,0,0,102.82,110.38Z"/><path class="cls-11" d="M123.69,108.87a.72.72,0,0,0-.58-.24l-2.18.13a.73.73,0,0,0-.68.63l-.42,2.88-1.53.09.37-2.59a.73.73,0,0,0-.18-.6.74.74,0,0,0-.59-.24l-2.17.13a.72.72,0,0,0-.68.63l-1.36,9.4a.73.73,0,0,0,.18.6.71.71,0,0,0,.55.23h0l2.17-.12a.74.74,0,0,0,.68-.63l.49-3.35,1.54-.09-.45,3.06a.74.74,0,0,0,.19.6.67.67,0,0,0,.58.23l2.18-.13a.73.73,0,0,0,.68-.62l1.36-9.4A.73.73,0,0,0,123.69,108.87Z"/><path class="cls-11" d="M92.57,118.85l-.4.05H92c0-.11,0-.25,0-.42l.82-6.4a.73.73,0,0,0-.19-.6.75.75,0,0,0-.59-.22l-2.17.16a.74.74,0,0,0-.67.64l-.6,4.78a4,4,0,0,1-.67,1.87,1.3,1.3,0,0,1-.88.65l-.07.72h0l-.1-.72a.64.64,0,0,1-.05-.22,5.61,5.61,0,0,1,.08-.87l.74-5.79a.72.72,0,0,0-.2-.6.7.7,0,0,0-.58-.22l-2.17.17a.72.72,0,0,0-.67.63l-.77,5.9a9.3,9.3,0,0,0-.09,1.46,3.36,3.36,0,0,0,.8,2.08,2.67,2.67,0,0,0,2.29.82,4.07,4.07,0,0,0,1.72-.57,6,6,0,0,0,.86-.62,2.06,2.06,0,0,0,1.06.56l-.33,2.14a.73.73,0,0,0,.18.62.76.76,0,0,0,.55.23h0l1.78-.14a.73.73,0,0,0,.67-.63l.6-4.65a.72.72,0,0,0-.82-.82Z"/><path class="cls-11" d="M73.27,113.6a.75.75,0,0,0-.59-.22l-2.18.22a.72.72,0,0,0-.65.64l-.33,2.9L68,117.3l.29-2.6a.71.71,0,0,0-.2-.59.75.75,0,0,0-.6-.22l-2.17.21a.74.74,0,0,0-.65.65l-1.07,9.45a.71.71,0,0,0,.2.59.72.72,0,0,0,.53.23h.07l2.16-.21a.75.75,0,0,0,.66-.65l.38-3.38,1.54-.15-.35,3.06a.73.73,0,0,0,.2.6.8.8,0,0,0,.6.22l2.17-.21a.74.74,0,0,0,.66-.65l1.07-9.44A.75.75,0,0,0,73.27,113.6Z"/><path class="cls-11" d="M290.55,106.27a4.07,4.07,0,0,0-2.95-1,6,6,0,0,0-1.08.09,4.22,4.22,0,0,0-1.68.7,4.42,4.42,0,0,0-1.59,2.29.71.71,0,0,0,.08.62.72.72,0,0,0,.53.33l1,.12a3.44,3.44,0,0,0-1.64.91,3.79,3.79,0,0,0-1,2.6,3.62,3.62,0,0,0,.79,2.46,2.85,2.85,0,0,0,2.2,1h.1a3.44,3.44,0,0,0,1.56-.4h0l.26-.14a.76.76,0,0,0,.63.38l2.14,0a.65.65,0,0,0,.58-.27.72.72,0,0,0,.15-.63,4.73,4.73,0,0,1-.14-1.14,13.12,13.12,0,0,1,.36-2.19c.29-1.36.46-2.2.51-2.51a6.08,6.08,0,0,0,.09-1A3.06,3.06,0,0,0,290.55,106.27Zm-4.77,6.52a.38.38,0,0,1,.12-.3,2.23,2.23,0,0,1,.85-.3l.42-.08a2.22,2.22,0,0,1-.16.43,1,1,0,0,1-.41.41.86.86,0,0,1-.24.11,1,1,0,0,1-.3,0c-.14,0-.17,0-.2-.07A.34.34,0,0,1,285.78,112.79Zm2.1-4a1.49,1.49,0,0,1,0,.25c-.23,0-.57.09-1.1.14l.06-.14a.63.63,0,0,1,.24-.4.8.8,0,0,1,.43-.08h0a.57.57,0,0,1,.34.07A.16.16,0,0,1,287.88,108.77Zm-2.55,6.92Z"/><path class="cls-11" d="M233.1,105.28a4,4,0,0,0-2.89-.94,5.75,5.75,0,0,0-1,.09h0a4.1,4.1,0,0,0-1.78.76,4.51,4.51,0,0,0-1.55,2.31.72.72,0,0,0,.09.62.73.73,0,0,0,.54.32l1,.1a3.5,3.5,0,0,0-1.61.93,3.78,3.78,0,0,0-.94,2.63,3.61,3.61,0,0,0,.82,2.43,2.86,2.86,0,0,0,2.22,1h0a3.29,3.29,0,0,0,1.54-.39l0,0,.3-.17a.75.75,0,0,0,.64.37h2.14a.72.72,0,0,0,.57-.28.73.73,0,0,0,.14-.62,4.78,4.78,0,0,1-.16-1.15,14.71,14.71,0,0,1,.32-2.2c.28-1.36.43-2.2.48-2.53a7.16,7.16,0,0,0,.08-1A3,3,0,0,0,233.1,105.28Zm-4.66,6.62a.37.37,0,0,1,.1-.3,2.4,2.4,0,0,1,.87-.33l.41-.08a2.33,2.33,0,0,1-.16.42,1,1,0,0,1-.4.43,1.23,1.23,0,0,1-.26.12h0a.71.71,0,0,1-.48,0A.29.29,0,0,1,228.44,111.9Zm2-4.08a1.75,1.75,0,0,1,0,.25,10.71,10.71,0,0,1-1.09.17.78.78,0,0,0,0-.14.66.66,0,0,1,.25-.42,1,1,0,0,1,.43-.08h0a.68.68,0,0,1,.33.06Z"/><path class="cls-11" d="M81.11,113a3.74,3.74,0,0,0-2.92-.66l-.56.08a4.47,4.47,0,0,0-2.22,1A4.65,4.65,0,0,0,74,115.93a.75.75,0,0,0,.72.89h1a3.48,3.48,0,0,0-1.54,1.09,3.8,3.8,0,0,0-.71,2.68,3.45,3.45,0,0,0,1,2.36,2.72,2.72,0,0,0,2,.81h.31a3.37,3.37,0,0,0,1.21-.36,2.69,2.69,0,0,0,.35-.21l.29-.2a.78.78,0,0,0,.67.3l2.13-.21a.71.71,0,0,0,.54-.33.71.71,0,0,0,.09-.63,4.35,4.35,0,0,1-.24-1.12,13.26,13.26,0,0,1,.15-2.22c.16-1.38.26-2.24.28-2.56a6.67,6.67,0,0,0,0-1A3,3,0,0,0,81.11,113Zm-3.87,7.4a.53.53,0,0,0-.13.13l0-.24a.33.33,0,0,1-.09-.23.34.34,0,0,1,.08-.31,2.36,2.36,0,0,1,.88-.43h0l.34-.11a2.77,2.77,0,0,1-.13.44,1.09,1.09,0,0,1-.36.45,1.35,1.35,0,0,1-.33.18h0a.72.72,0,0,1-.22,0Zm1.45-4.36c-.22.07-.56.16-1.08.27a.56.56,0,0,0,0-.12.67.67,0,0,1,.18-.41.78.78,0,0,1,.18-.11,1.55,1.55,0,0,1,.42-.07.44.44,0,0,1,.2,0,.54.54,0,0,0,.07.13S78.7,115.91,78.69,116.05Z"/><path class="cls-11" d="M183,105.21h0l-.43,0h0a4.78,4.78,0,0,0-3.77,2.41,7,7,0,0,0-1,3.81,5.31,5.31,0,0,0,1.24,3.6,4.06,4.06,0,0,0,3.19,1.39h.07l.26,0h0a4.31,4.31,0,0,0,2.26-.84,5.37,5.37,0,0,0,1.77-2.38.71.71,0,0,0-.34-.93.76.76,0,0,0,.63-.59,9,9,0,0,0,.14-1.79,5.12,5.12,0,0,0-1.08-3.42A3.73,3.73,0,0,0,183,105.21Zm-.57,8a.66.66,0,0,1-.73-.27,1.26,1.26,0,0,1-.26-.53l1.15,0h0l.68,0C183,113,182.6,113.14,182.46,113.17Zm-.3-4.32a1,1,0,0,1,.59-.36h.12a.56.56,0,0,1,.49.22,1.39,1.39,0,0,1,.22.61l-1,0h0l-.76,0A1.77,1.77,0,0,1,182.16,108.85Z"/><path class="cls-11" d="M245.82,104.37a3.75,3.75,0,0,0-2,.57,4.15,4.15,0,0,0-.63.44,2.19,2.19,0,0,0-.36-.39,3.24,3.24,0,0,0-3.68-.14h0a.73.73,0,0,0-.56-.26h-2.08a.73.73,0,0,0-.72.6l-1.75,9.3a.71.71,0,0,0,.15.61.73.73,0,0,0,.57.26H237a.74.74,0,0,0,.72-.6l.81-4.28c.13-.69.22-1.14.28-1.34a3.46,3.46,0,0,1,.42-.92,1.46,1.46,0,0,1,.44-.45.39.39,0,0,1,.45,0,9,9,0,0,1-.18,1.14l-1,5.62a.74.74,0,0,0,.15.61.73.73,0,0,0,.57.26h2.2a.76.76,0,0,0,.72-.6l.8-4.22a6.5,6.5,0,0,1,.7-2.25c.29-.44.58-.65.93-.58,0,.12-.07.49-.18,1.1l-1.08,5.69a.73.73,0,0,0,.73.86h2.2a.74.74,0,0,0,.72-.59l1.08-5.69a11.59,11.59,0,0,0,.23-1.79,2.9,2.9,0,0,0-.72-2.08A2.68,2.68,0,0,0,245.82,104.37Z"/><path class="cls-11" d="M269.46,104.59a3.93,3.93,0,0,0-2,.58,4.61,4.61,0,0,0-.62.44,3.33,3.33,0,0,0-.36-.39,2.75,2.75,0,0,0-1.92-.64,3.52,3.52,0,0,0-1.76.49h0a.72.72,0,0,0-.56-.27h-2.07a.73.73,0,0,0-.72.59l-1.76,9.31a.72.72,0,0,0,.16.6.74.74,0,0,0,.56.27h2.21a.74.74,0,0,0,.72-.59l.8-4.28c.14-.7.23-1.15.29-1.34a3.12,3.12,0,0,1,.41-.91,1.48,1.48,0,0,1,.46-.47.36.36,0,0,1,.43,0,7.94,7.94,0,0,1-.17,1.13l-1.06,5.63a.74.74,0,0,0,.16.61.71.71,0,0,0,.56.26h2.2a.74.74,0,0,0,.73-.6l.8-4.23a6.68,6.68,0,0,1,.7-2.25c.28-.43.57-.64.93-.59,0,.12-.07.49-.19,1.11l-1.07,5.69a.73.73,0,0,0,.16.6.71.71,0,0,0,.56.27h2.21a.74.74,0,0,0,.71-.6l1.08-5.69a10.08,10.08,0,0,0,.23-1.8,2.89,2.89,0,0,0-.72-2.07A2.73,2.73,0,0,0,269.46,104.59Z"/><path class="cls-11" d="M177.65,106a.8.8,0,0,0-.58-.25l-2.18.09a.72.72,0,0,0-.69.61l-.9,5.58a2.53,2.53,0,0,0-.89-1.48,3.52,3.52,0,0,0-2.28-.67l-1.51,0h0l-.34,0,.48-3a.75.75,0,0,0-.17-.61.76.76,0,0,0-.58-.24l-2.19.08a.74.74,0,0,0-.7.62l-1.5,9.37a.73.73,0,0,0,.17.6.75.75,0,0,0,.55.25h0l4.25-.16.86,0a3.94,3.94,0,0,0,2.95-1.2,4.4,4.4,0,0,0,.38-.5l-.11.7a.75.75,0,0,0,.17.61.78.78,0,0,0,.58.25l2.18-.08a.75.75,0,0,0,.69-.62l1.52-9.38A.74.74,0,0,0,177.65,106Zm-9.87,7,.87,0h0a2.33,2.33,0,0,1,1,.11s0,0,.06.2-.08.31-.13.35a2.2,2.2,0,0,1-1,.22l-.91,0Z"/><path class="cls-11" d="M257,110.82l-2.14-.4a.73.73,0,0,0-.83.5,2.19,2.19,0,0,1-.57,1,.83.83,0,0,1-.53.25.33.33,0,0,1-.3-.17,1.32,1.32,0,0,1-.19-.81,7.06,7.06,0,0,1,.27-1.84,3,3,0,0,1,.67-1.3,1,1,0,0,1,.68-.32.4.4,0,0,1,.35.13,1.21,1.21,0,0,1,.22.71.73.73,0,0,0,.27.5.67.67,0,0,0,.55.16l2.09-.24a.75.75,0,0,0,.65-.79,4.15,4.15,0,0,0-1.16-2.72,3.87,3.87,0,0,0-2.86-1.09,4.94,4.94,0,0,0-2.83.91,5.53,5.53,0,0,0-1.94,2.44,8.69,8.69,0,0,0-.62,3.14,5.05,5.05,0,0,0,1.08,3.41,3.81,3.81,0,0,0,3,1.32h0a4.46,4.46,0,0,0,2.84-1,6,6,0,0,0,1.81-2.82.7.7,0,0,0-.06-.6A.75.75,0,0,0,257,110.82Z"/><path class="cls-11" d="M282.16,108.2a3.2,3.2,0,0,0-.8-2.22,3.67,3.67,0,0,0-2.85-1.06h-.22a5.08,5.08,0,0,0-.79,0,4.79,4.79,0,0,0-3.28,1.8,7.15,7.15,0,0,0-1.5,4.43,5,5,0,0,0,1.09,3.5,4.32,4.32,0,0,0,3.35,1.39h.34a4.63,4.63,0,0,0,3.06-1,3.34,3.34,0,0,0,1.22-2.51,2.87,2.87,0,0,0-.49-1.72,2.61,2.61,0,0,0-.27-.31,3.19,3.19,0,0,0,.49-.48A3.09,3.09,0,0,0,282.16,108.2Zm-3.45.25c0,.31-.11.38-.14.41a2,2,0,0,1-1,.16l-.88,0a1.57,1.57,0,0,1,.34-.45,1.46,1.46,0,0,1,.7-.32,3.2,3.2,0,0,1,.48,0,1,1,0,0,1,.5.1S278.71,108.38,278.71,108.45ZM277.52,112h.05a.75.75,0,0,1,.5.19.38.38,0,0,1,.13.33c0,.15,0,.18-.06.19a1.15,1.15,0,0,1-.62.11h0c-.29,0-.79-.06-1-.3a1.66,1.66,0,0,1-.21-.55Z"/><path class="cls-11" d="M202.25,104.94c.23,0,.52,0,.9,0a6,6,0,0,0,2.06-.35,2.21,2.21,0,0,0,1.08-1.13,5.33,5.33,0,0,0,.34-1.92.79.79,0,0,0-.22-.54.69.69,0,0,0-.53-.21l-1.52,0a.83.83,0,0,0-.69.61l-.47,0a10.76,10.76,0,0,0-2.37.31h0a2,2,0,0,0-.32.1,5,5,0,0,0-2.07,1.7,11.93,11.93,0,0,0-1.74,3.4,12.66,12.66,0,0,0-.73,4.15,5.12,5.12,0,0,0,1.24,3.48,4.15,4.15,0,0,0,3.28,1.38h.09l.37,0h0a4.62,4.62,0,0,0,3.63-2.07,7,7,0,0,0,1.3-4.16,5.3,5.3,0,0,0-1.11-3.43A3.62,3.62,0,0,0,202.25,104.94Zm-2,4.08c.37-.65.75-.72.88-.74h0a.82.82,0,0,1,.81.25,1.63,1.63,0,0,1,.3,1,4.06,4.06,0,0,1-.55,2.15,1.4,1.4,0,0,1-.88.78.56.56,0,0,0-.18,0,.86.86,0,0,1-.62-.29,1.74,1.74,0,0,1-.31-1.13A3.8,3.8,0,0,1,200.21,109Z"/><path class="cls-11" d="M215,105.87a4.28,4.28,0,0,0-3.38-1.39l-.39,0a4.77,4.77,0,0,0-3.51,1.78,6.9,6.9,0,0,0-1.47,4.58,5.59,5.59,0,0,0,.48,2.37,4,4,0,0,0,1.61,1.83,4.72,4.72,0,0,0,2.42.64h0l.47,0a4.74,4.74,0,0,0,3.51-1.91,6.92,6.92,0,0,0,1.44-4.35A5.13,5.13,0,0,0,215,105.87Zm-4.8,3.43a2.62,2.62,0,0,1,.66-1.14,1.11,1.11,0,0,1,.54-.29h0a.73.73,0,0,1,.84.26,1.45,1.45,0,0,1,.27,1,4.52,4.52,0,0,1-.76,2.63,1.18,1.18,0,0,1-.72.55h0a.85.85,0,0,1-.81-.29,1.75,1.75,0,0,1-.31-1.13A5.47,5.47,0,0,1,210.21,109.3Z"/><path class="cls-11" d="M163.64,106.45a.77.77,0,0,0-.58-.25l-2.18.08a.76.76,0,0,0-.7.62l-.46,2.88-1.53,0,.41-2.58a.69.69,0,0,0-.17-.6.77.77,0,0,0-.58-.25l-2.18.09a.72.72,0,0,0-.69.61l-1.51,9.37a.74.74,0,0,0,.73.85h0l2.17-.08a.75.75,0,0,0,.7-.62l.53-3.34,1.54-.06-.49,3a.76.76,0,0,0,.18.61.73.73,0,0,0,.57.24l2.19-.08a.74.74,0,0,0,.7-.62l1.49-9.37A.73.73,0,0,0,163.64,106.45Z"/><path class="cls-11" d="M143.52,107.64a.67.67,0,0,0-.59-.24l-6.94.4a.74.74,0,0,0-.69.63l-.75,5.23a5.94,5.94,0,0,1-.34,1.53s0,0-.25.06a3.49,3.49,0,0,1-.53,0,.68.68,0,0,0-.57.12.7.7,0,0,0-.3.51l-.24,2a4.31,4.31,0,0,1-.19-1.09,12.41,12.41,0,0,1,.22-2.21c.21-1.38.32-2.23.35-2.55a6.85,6.85,0,0,0,0-1,3,3,0,0,0-1.07-2.24,3.79,3.79,0,0,0-2.88-.77,4.9,4.9,0,0,0-.78.09h0A4.37,4.37,0,0,0,126,109a4.54,4.54,0,0,0-1.43,2.4.67.67,0,0,0,.12.61.72.72,0,0,0,.55.3l1,0a3.6,3.6,0,0,0-1.58,1,3.87,3.87,0,0,0-.8,2.67,3.6,3.6,0,0,0,.94,2.39,2.8,2.8,0,0,0,2.09.89H127a3.44,3.44,0,0,0,1.37-.38.41.41,0,0,0,.11-.07l.11,0,.29-.19a.7.7,0,0,0,.66.32l2.13-.12a.73.73,0,0,0,.67-.55.72.72,0,0,0,.56.49,6.59,6.59,0,0,0,1.36.14h.22a3.27,3.27,0,0,0,2.26-1,4.51,4.51,0,0,0,1-2.49l.62-4.35,1.28-.07-.94,6.52a.73.73,0,0,0,.19.6.66.66,0,0,0,.58.24l2.17-.13a.74.74,0,0,0,.69-.62l1.35-9.4A.73.73,0,0,0,143.52,107.64Zm-16.12,8.22a.39.39,0,0,1-.08-.23.37.37,0,0,1,.1-.32,2.51,2.51,0,0,1,.87-.38h0l.37-.1a2.56,2.56,0,0,1-.14.44,1.17,1.17,0,0,1-.39.45,1.11,1.11,0,0,1-.29.14,1.08,1.08,0,0,1-.29,0Zm1.75-4.18a9.09,9.09,0,0,1-1.08.23.27.27,0,0,0,0-.12.73.73,0,0,1,.32-.48h0a1.19,1.19,0,0,1,.43-.07c.17,0,.24,0,.26,0l.06.14A1.49,1.49,0,0,1,129.15,111.68Zm-2.33,6.88Z"/><path class="cls-11" d="M152.28,111.38a3.63,3.63,0,0,0-2.53-.62l-1.22.07h0l-.38,0,.43-3a.69.69,0,0,0-.18-.6.66.66,0,0,0-.58-.24l-2.19.12a.74.74,0,0,0-.68.63l-1.37,9.4a.7.7,0,0,0,.19.6.72.72,0,0,0,.54.24h0l4.22-.25h0l.9-.05a4.06,4.06,0,0,0,2.93-1.26,3.9,3.9,0,0,0,.92-2.83A2.81,2.81,0,0,0,152.28,111.38Zm-4.59,2.49.56,0h.53a2.17,2.17,0,0,1,.79.09s.05,0,.05.19-.07.33-.12.37a2.24,2.24,0,0,1-1,.25l-.91,0Z"/><polygon class="cls-12" points="70.18 117.43 67.16 117.72 67.55 114.23 65.39 114.45 64.31 123.89 66.48 123.68 66.93 119.71 69.96 119.41 69.5 123.38 71.68 123.17 72.75 113.72 70.58 113.94 70.18 117.43"/><path class="cls-12" d="M230.27,104.68a6,6,0,0,0-1,.08l-.06,0a2.83,2.83,0,0,0-.44.13c-.1,0-.21,0-.31.09a3.17,3.17,0,0,0-.65.38,3.73,3.73,0,0,0-1.3,1.94l2.15.22a1.41,1.41,0,0,1,.47-.79l.12-.08a1.57,1.57,0,0,1,.81-.19,1.16,1.16,0,0,1,.84.27.86.86,0,0,1,.28.68,3.15,3.15,0,0,1-.14.84,7.59,7.59,0,0,1-1.81.33h0l-.29,0a3.83,3.83,0,0,0-2.59,1,3,3,0,0,0-.73,2.13,2.87,2.87,0,0,0,.64,2,2.16,2.16,0,0,0,1.67.76,2.73,2.73,0,0,0,1.25-.32h0l.05,0a2.33,2.33,0,0,0,.38-.26,1,1,0,0,0,.17-.12,3.27,3.27,0,0,0,.52-.53,4.51,4.51,0,0,0,.16,1h2.13a5.89,5.89,0,0,1-.17-1.31,14.14,14.14,0,0,1,.33-2.34c.27-1.34.43-2.17.47-2.49a5.6,5.6,0,0,0,.07-.89,2.33,2.33,0,0,0-.74-1.77A3.24,3.24,0,0,0,230.27,104.68Zm.43,5.53a5.07,5.07,0,0,1-.39,1.35,1.8,1.8,0,0,1-.66.71,1.86,1.86,0,0,1-.43.2,1.75,1.75,0,0,1-.51.07.94.94,0,0,1-.73-.3,1.17,1.17,0,0,1,.09-1.59,3,3,0,0,1,1.17-.48,9.63,9.63,0,0,1,1-.18l.53-.11Z"/><path class="cls-12" d="M128.83,108.31a5,5,0,0,0-.69.08h-.07a6.17,6.17,0,0,0-.65.2,2.09,2.09,0,0,1-.23.08,3.24,3.24,0,0,0-.76.47,3.84,3.84,0,0,0-1.21,2l2.16.09a1.34,1.34,0,0,1,.44-.81,1.31,1.31,0,0,1,.3-.2,1.61,1.61,0,0,1,.61-.13,1.14,1.14,0,0,1,.86.22.86.86,0,0,1,.31.65,3.37,3.37,0,0,1-.1.86,7.84,7.84,0,0,1-1.7.42h0l-.38,0a4,4,0,0,0-2.55,1.12,3.07,3.07,0,0,0-.63,2.17,2.81,2.81,0,0,0,.73,1.91,2.08,2.08,0,0,0,1.7.66,2.7,2.7,0,0,0,1.08-.3l.07,0,.1-.07a3.27,3.27,0,0,0,1.07-1,5.81,5.81,0,0,0,.21,1l2.14-.12a5.3,5.3,0,0,1-.24-1.31,14.32,14.32,0,0,1,.23-2.35c.21-1.36.32-2.19.35-2.51a5.62,5.62,0,0,0,0-.9,2.33,2.33,0,0,0-.83-1.72A3.17,3.17,0,0,0,128.83,108.31Zm.69,5.49a5.79,5.79,0,0,1-.33,1.38,1.81,1.81,0,0,1-.64.74,1.62,1.62,0,0,1-.49.25,1.71,1.71,0,0,1-.43.08.89.89,0,0,1-.74-.26,1,1,0,0,1-.31-.72,1.1,1.1,0,0,1,.33-.87,2.88,2.88,0,0,1,1.17-.56c.28-.08.6-.16,1-.23a4.36,4.36,0,0,0,.52-.15Z"/><polygon class="cls-12" points="120.47 112.58 117.45 112.75 117.94 109.28 115.77 109.41 114.41 118.8 116.59 118.68 117.15 114.73 120.19 114.55 119.61 118.5 121.79 118.38 123.15 108.97 120.97 109.1 120.47 112.58"/><path class="cls-12" d="M135.28,113.38a7.19,7.19,0,0,1-.41,1.75.85.85,0,0,1-.77.46,3.36,3.36,0,0,1-.81-.06l-.26,2.11a6,6,0,0,0,1.41.12,2.52,2.52,0,0,0,1.77-.71A3.79,3.79,0,0,0,137,115l.71-4.94,2.77-.16-1.06,7.42,2.17-.13,1.35-9.4-6.95.4Z"/><path class="cls-12" d="M91.4,119.18a.44.44,0,0,1-.2-.39,5.05,5.05,0,0,1,.07-.78l.81-6.4-2.17.16-.6,4.78a4.67,4.67,0,0,1-.8,2.22,2,2,0,0,1-1.42.94.93.93,0,0,1-.72-.19,1,1,0,0,1-.28-.72,5.57,5.57,0,0,1,.08-1l.74-5.78-2.17.17-.76,5.9a9.16,9.16,0,0,0-.09,1.31,2.7,2.7,0,0,0,.63,1.65,1.88,1.88,0,0,0,1.68.56,3.26,3.26,0,0,0,1.4-.46A7,7,0,0,0,89,120c.16.78.73,1.14,1.72,1.08L90.28,124l1.78-.14.6-4.64-.44,0A1.71,1.71,0,0,1,91.4,119.18Z"/><path class="cls-12" d="M80.64,113.19a3.18,3.18,0,0,0-2.36-.5,3.89,3.89,0,0,0-.51.08H77.7a4.42,4.42,0,0,0-.7.22c-.09,0-.2.06-.28.1a3,3,0,0,0-.82.53,3.84,3.84,0,0,0-1.14,2.06h2.16a1.34,1.34,0,0,1,.83-1.09,2.23,2.23,0,0,1,.49-.1,1.11,1.11,0,0,1,.85.19.89.89,0,0,1,.34.64,3.29,3.29,0,0,1-.09.86,7.83,7.83,0,0,1-1.61.47l-.45.09A4,4,0,0,0,74.76,118a3.11,3.11,0,0,0-.56,2.2A2.76,2.76,0,0,0,75,122a2.07,2.07,0,0,0,1.72.59,2.61,2.61,0,0,0,1-.29l.07,0a1.55,1.55,0,0,0,.22-.12,3.59,3.59,0,0,0,1-1.05,5.73,5.73,0,0,0,.24,1l2.13-.21a5.25,5.25,0,0,1-.28-1.3,14.29,14.29,0,0,1,.16-2.35c.16-1.37.26-2.21.28-2.53a6.75,6.75,0,0,0,0-.9A2.27,2.27,0,0,0,80.64,113.19Zm-1.5,5a5.78,5.78,0,0,1-.3,1.39,1.87,1.87,0,0,1-.6.78,2.1,2.1,0,0,1-.56.28,1.45,1.45,0,0,1-.36.08.92.92,0,0,1-.75-.23,1.06,1.06,0,0,1-.33-.72,1.11,1.11,0,0,1,.3-.87,2.89,2.89,0,0,1,1.17-.62h0c.27-.09.58-.18.93-.26a3.52,3.52,0,0,0,.52-.17Z"/><path class="cls-12" d="M108.9,110h-.15a5,5,0,0,0-.53.11c-.12,0-.26,0-.38.08a4.73,4.73,0,0,0-.47.2,3,3,0,0,0-.37.16c-.15.09-.29.2-.44.31s-.2.13-.29.22a4.32,4.32,0,0,0-.63.71,6.28,6.28,0,0,0-1,4.21,4.79,4.79,0,0,0,.55,2,3.14,3.14,0,0,0,1.41,1.38,3.81,3.81,0,0,0,2.06.37h.18a3,3,0,0,0,.43-.09,3.54,3.54,0,0,0,.49-.1c.16-.06.31-.14.46-.21a2.64,2.64,0,0,0,.38-.18,3.41,3.41,0,0,0,.48-.37,2.35,2.35,0,0,0,.25-.19,4.63,4.63,0,0,0,.63-.75,6.36,6.36,0,0,0,1-4,4.31,4.31,0,0,0-1.18-3A3.51,3.51,0,0,0,108.9,110Zm-.32,7.84a1.41,1.41,0,0,1-1.22-.49,2.4,2.4,0,0,1-.57-1.55A5.82,5.82,0,0,1,107,114a3.5,3.5,0,0,1,.77-1.53,2.06,2.06,0,0,1,.48-.37l.18-.07a1.63,1.63,0,0,1,.37-.13.76.76,0,0,1,.21,0,1.46,1.46,0,0,1,1.21.44,2.11,2.11,0,0,1,.53,1.4,5.3,5.3,0,0,1-.7,3.11c-.09.14-.18.26-.27.38l-.09.08a2.09,2.09,0,0,1-.22.2l-.16.1-.17.1-.21.07-.19,0A.41.41,0,0,1,108.58,117.79Z"/><path class="cls-12" d="M100.12,115.38a9.66,9.66,0,0,1-.24,1.34,3.73,3.73,0,0,1-.4.91,2.83,2.83,0,0,1-.5.63,2.55,2.55,0,0,1-.56.43,1.57,1.57,0,0,1-.57.18.88.88,0,0,1-.68-.24,1,1,0,0,1-.3-.67,9.23,9.23,0,0,1,.12-1.25l.69-5.58-2.19.17-.67,5.25a13.21,13.21,0,0,0-.15,1.94,2.49,2.49,0,0,0,.67,1.71,1.93,1.93,0,0,0,1.62.53A4,4,0,0,0,99.8,119l-.16,1.28,2.06-.16,1.18-9.43-2.2.18Z"/><path class="cls-12" d="M290,106.39a3.25,3.25,0,0,0-2.31-.77,5,5,0,0,0-1,.08h-.07a4,4,0,0,0-.41.12c-.09,0-.2,0-.28.09a3.19,3.19,0,0,0-.63.35,3.63,3.63,0,0,0-1.32,1.92l2.14.25a1.42,1.42,0,0,1,.48-.77l0,0,0,0a1.52,1.52,0,0,1,.87-.21,1.23,1.23,0,0,1,.84.29,1,1,0,0,1,.27.69,3.79,3.79,0,0,1-.16.83,7.73,7.73,0,0,1-1.84.3h0l-.25,0a3.91,3.91,0,0,0-2.61.9,3,3,0,0,0-.76,2.12,2.83,2.83,0,0,0,.61,2,2.09,2.09,0,0,0,1.66.79,2.58,2.58,0,0,0,1.27-.3h0l.06,0a2.05,2.05,0,0,0,.36-.24l.17-.12a3,3,0,0,0,.5-.5,6.28,6.28,0,0,0,.14,1.06l2.14,0a5.47,5.47,0,0,1-.15-1.33,13.18,13.18,0,0,1,.37-2.32c.29-1.34.46-2.16.51-2.48a7.15,7.15,0,0,0,.08-.9A2.36,2.36,0,0,0,290,106.39Zm-1.95,4.76a5.15,5.15,0,0,1-.42,1.35,1.71,1.71,0,0,1-.67.69,1.65,1.65,0,0,1-.41.18,1.61,1.61,0,0,1-.54.08.94.94,0,0,1-.72-.32,1.06,1.06,0,0,1-.26-.75,1.08,1.08,0,0,1,.38-.84,2.87,2.87,0,0,1,1.17-.46,10,10,0,0,1,1-.15,4,4,0,0,0,.53-.11Z"/><path class="cls-12" d="M281.42,107.8a2.5,2.5,0,0,0-.62-1.74,3.07,3.07,0,0,0-2.31-.8,6.51,6.51,0,0,0-.9,0h-.07l-.27.06a3.13,3.13,0,0,0-.53.12c-.1,0-.19.08-.29.12a3.43,3.43,0,0,0-.44.19,3.62,3.62,0,0,0-.32.22,3.88,3.88,0,0,0-.33.23,4.36,4.36,0,0,0-.55.58,6.41,6.41,0,0,0-1.34,4,4.33,4.33,0,0,0,.91,3,3.64,3.64,0,0,0,2.79,1.14h.41l.26,0c.17,0,.34,0,.5,0a2.84,2.84,0,0,0,.31-.06c.13,0,.26,0,.38-.09a2.15,2.15,0,0,0,.32-.13l.26-.11a2,2,0,0,0,.48-.33,2.6,2.6,0,0,0,1-2,2.11,2.11,0,0,0-.35-1.27,2.41,2.41,0,0,0-1.14-.81,2.87,2.87,0,0,0,1.39-.87A2.32,2.32,0,0,0,281.42,107.8Zm-3.2-.73a1.54,1.54,0,0,1,.93.26.85.85,0,0,1,.29.74,1.14,1.14,0,0,1-.44,1,2.54,2.54,0,0,1-1.45.3h-.21l-1.68,0a2.94,2.94,0,0,1,.87-1.71,2,2,0,0,1,.46-.3,2.64,2.64,0,0,1,.3-.1,2.29,2.29,0,0,1,.28-.09A3.36,3.36,0,0,1,278.22,107.07Zm-.76,6.07a1.78,1.78,0,0,1-1.55-.62,3,3,0,0,1-.39-1.71l2,0h.05a1.47,1.47,0,0,1,.95.35,1.11,1.11,0,0,1,.41.91.92.92,0,0,1-.38.78,1.27,1.27,0,0,1-.44.18,1,1,0,0,1-.18,0,1.91,1.91,0,0,1-.43,0Z"/><path class="cls-12" d="M245.85,104.71a3.17,3.17,0,0,0-1.64.47,3.52,3.52,0,0,0-1.22,1.17,2,2,0,0,0-.63-1.2,2,2,0,0,0-1.41-.44,3.43,3.43,0,0,0-2.56,1.34l.21-1.13h-2.07l-1.75,9.31H237l.81-4.27c.14-.74.24-1.22.3-1.43a4.55,4.55,0,0,1,.5-1.1,2.41,2.41,0,0,1,.67-.68,1.46,1.46,0,0,1,.75-.24.78.78,0,0,1,.6.23.86.86,0,0,1,.22.61,8.16,8.16,0,0,1-.19,1.26l-1,5.63h2.2l.8-4.23a7.7,7.7,0,0,1,.8-2.52,1.84,1.84,0,0,1,1.48-1,.79.79,0,0,1,.61.23.8.8,0,0,1,.19.6c0,.1-.06.5-.19,1.22l-1.08,5.68h2.21l1.07-5.68a10.34,10.34,0,0,0,.22-1.67,2.19,2.19,0,0,0-.53-1.57A2,2,0,0,0,245.85,104.71Z"/><path class="cls-12" d="M204.18,101.62a3,3,0,0,1-1,.12A10.23,10.23,0,0,0,201,102h0l-.08,0-.18.06a4.32,4.32,0,0,0-1.74,1.46,11.06,11.06,0,0,0-1.62,3.2,11.56,11.56,0,0,0-.69,3.9,4.41,4.41,0,0,0,1.05,3,3.46,3.46,0,0,0,2.8,1.14l.33,0h.17c.17,0,.32-.07.47-.1a3.59,3.59,0,0,0,.35-.08,3,3,0,0,0,.52-.22,1.85,1.85,0,0,0,.29-.13,2.94,2.94,0,0,0,.5-.37,1.56,1.56,0,0,0,.19-.14,4.52,4.52,0,0,0,.6-.7,6.38,6.38,0,0,0,1.16-3.74,4.47,4.47,0,0,0-.94-3,3.11,3.11,0,0,0-3.17-1l0,0h-.05a3.4,3.4,0,0,0-.53.23.52.52,0,0,1-.13.06,5.48,5.48,0,0,0-.7.48,5.3,5.3,0,0,1,.84-1.52,2.47,2.47,0,0,1,.58-.51,2.42,2.42,0,0,1,.4-.19,7.43,7.43,0,0,1,1.72-.2,5.54,5.54,0,0,0,1.79-.27,1.49,1.49,0,0,0,.71-.77,4.57,4.57,0,0,0,.27-1.64l-1.51,0C204.36,101.39,204.29,101.56,204.18,101.62Zm-1.69,6.07a2.31,2.31,0,0,1,.45,1.48,4.85,4.85,0,0,1-.65,2.53,2.78,2.78,0,0,1-.28.42l-.11.11a2.23,2.23,0,0,1-.21.22l-.13.09a1.64,1.64,0,0,1-.22.14l-.15.06a1,1,0,0,1-.29.09,1.09,1.09,0,0,1-.26,0,1.57,1.57,0,0,1-1.17-.51,2.28,2.28,0,0,1-.54-1.65,4.59,4.59,0,0,1,.64-2.44,2.22,2.22,0,0,1,.29-.42.08.08,0,0,1,0,0,1.28,1.28,0,0,1,.29-.28.83.83,0,0,1,.12-.08,1.28,1.28,0,0,1,.25-.15l.14-.05.27-.08a2.36,2.36,0,0,1,.29,0A1.42,1.42,0,0,1,202.49,107.69Z"/><path class="cls-12" d="M252.86,107.12a1.69,1.69,0,0,1,1.19-.53,1.16,1.16,0,0,1,.89.37,2,2,0,0,1,.41,1.15l2.1-.25a3.48,3.48,0,0,0-1-2.27,3.12,3.12,0,0,0-2.3-.86,4.23,4.23,0,0,0-2.44.77,4.8,4.8,0,0,0-1.68,2.12,7.69,7.69,0,0,0-.57,2.87,4.38,4.38,0,0,0,.9,2.92,3.11,3.11,0,0,0,2.46,1.07,3.66,3.66,0,0,0,2.41-.85,5.18,5.18,0,0,0,1.58-2.48l-2.14-.4a2.86,2.86,0,0,1-.77,1.32,1.48,1.48,0,0,1-1,.43,1.08,1.08,0,0,1-.88-.44,2,2,0,0,1-.35-1.28,7.71,7.71,0,0,1,.31-2A3.54,3.54,0,0,1,252.86,107.12Z"/><path class="cls-12" d="M211.65,104.82l-.36,0h-.07l-.41.07c-.14,0-.29,0-.42.08s-.29.11-.43.16a3.65,3.65,0,0,0-.35.14,4.26,4.26,0,0,0-.5.32,2.43,2.43,0,0,0-.2.14,4,4,0,0,0-.62.61,6.2,6.2,0,0,0-1.3,4.12,5,5,0,0,0,.42,2.07,3.27,3.27,0,0,0,1.32,1.5,3.92,3.92,0,0,0,2,.52h.48a3.56,3.56,0,0,0,.49-.09l.34-.07a4.34,4.34,0,0,0,.5-.2,2.36,2.36,0,0,0,.28-.12,4.73,4.73,0,0,0,.46-.32c.08-.06.16-.1.24-.17a4.22,4.22,0,0,0,.61-.65,6.24,6.24,0,0,0,1.29-3.9,4.38,4.38,0,0,0-1-3.06A3.58,3.58,0,0,0,211.65,104.82Zm-.79,7.81a1.5,1.5,0,0,1-1.2-.59,2.45,2.45,0,0,1-.46-1.59,5.94,5.94,0,0,1,.31-1.76,3.32,3.32,0,0,1,.87-1.47,2.19,2.19,0,0,1,.41-.29l.17-.06a1.63,1.63,0,0,1,.31-.11,1.58,1.58,0,0,1,.38,0,1.45,1.45,0,0,1,1.17.54,2.06,2.06,0,0,1,.45,1.43,5.17,5.17,0,0,1-.89,3.06,2.33,2.33,0,0,1-.53.55,1.47,1.47,0,0,1-.22.1,1.38,1.38,0,0,1-.43.19A1.27,1.27,0,0,1,210.86,112.63Z"/><path class="cls-12" d="M220.83,110.31a7.23,7.23,0,0,0,2.75-1.17,2.33,2.33,0,0,0,.73-1.81,2.54,2.54,0,0,0-.77-1.87,3.62,3.62,0,0,0-2.6-.79,3,3,0,0,0-3.16,2.46l1.93.39a1.39,1.39,0,0,1,1.48-1,1.6,1.6,0,0,1,.85.19.65.65,0,0,1,.28.58.84.84,0,0,1-.35.76,10.23,10.23,0,0,1-2,.67,10.31,10.31,0,0,0-2.07.74,2.42,2.42,0,0,0-1.23,2.16,2.75,2.75,0,0,0,.79,2,3.24,3.24,0,0,0,2.48.86,4.68,4.68,0,0,0,2.71-.67,3.39,3.39,0,0,0,1.32-2.07l-2.07-.39a1.9,1.9,0,0,1-2.83,1.07.85.85,0,0,1-.37-.71.79.79,0,0,1,.37-.72A7.94,7.94,0,0,1,220.83,110.31Z"/><path class="cls-12" d="M269.48,104.94a3.14,3.14,0,0,0-1.65.47,3.49,3.49,0,0,0-1.21,1.17,1.85,1.85,0,0,0-2.05-1.65,3.52,3.52,0,0,0-2.56,1.34l.22-1.12h-2.07l-1.76,9.31h2.21l.8-4.27a14.33,14.33,0,0,1,.31-1.43,4,4,0,0,1,.5-1.11,2.25,2.25,0,0,1,.67-.67,1.45,1.45,0,0,1,.75-.25.75.75,0,0,1,.6.24.84.84,0,0,1,.21.61,9.28,9.28,0,0,1-.18,1.26l-1.06,5.63h2.2l.8-4.22a7.49,7.49,0,0,1,.81-2.52,1.81,1.81,0,0,1,1.48-1,.79.79,0,0,1,.61.23.89.89,0,0,1,.19.61,12,12,0,0,1-.2,1.21L268,114.46h2.2l1.08-5.69a10.26,10.26,0,0,0,.22-1.66,2.24,2.24,0,0,0-.53-1.58A2,2,0,0,0,269.48,104.94Z"/><path class="cls-12" d="M169.92,110.19l-1.28,0h0l-1.2,0,.63-3.88-2.19.09-1.51,9.36,4.25-.16.87,0a3.28,3.28,0,0,0,2.43-1,3.18,3.18,0,0,0,.78-2.29,2.14,2.14,0,0,0-.72-1.71A2.92,2.92,0,0,0,169.92,110.19Zm.09,3.55a1.57,1.57,0,0,1-.55.24,4.37,4.37,0,0,1-.84.13h-.29l-1.56.06.38-2.37,1.18,0h.3A3,3,0,0,1,170,112a.86.86,0,0,1,.44.82A1.06,1.06,0,0,1,170,113.74Z"/><path class="cls-12" d="M183.05,105.56l-.38,0h-.08a3.34,3.34,0,0,0-.43.1,3.86,3.86,0,0,0-.49.1,3.68,3.68,0,0,0-.49.23c-.12.07-.25.11-.36.18a3.11,3.11,0,0,0-.52.44c-.07.06-.15.11-.22.18a4.3,4.3,0,0,0-.62.82,6.38,6.38,0,0,0-.9,3.42,4.68,4.68,0,0,0,1.06,3.13,3.31,3.31,0,0,0,2.68,1.13h.33a3.27,3.27,0,0,0,.62-.14c.1,0,.21,0,.32-.08a3.15,3.15,0,0,0,.88-.48,4.59,4.59,0,0,0,1.52-2.06l-2-.34a4.68,4.68,0,0,1-.28.5l-.08.09a1.8,1.8,0,0,1-.25.29l-.11.09a2.53,2.53,0,0,1-.27.18.67.67,0,0,1-.15.06,1.52,1.52,0,0,1-.28.09,1.33,1.33,0,0,1-.28,0,1.41,1.41,0,0,1-1.14-.55,2.28,2.28,0,0,1-.47-1.5.78.78,0,0,1,0-.22l1.91,0h0l3.6-.06a8.33,8.33,0,0,0,.13-1.64,4.45,4.45,0,0,0-.91-3A2.92,2.92,0,0,0,183.05,105.56ZM181.61,108a2,2,0,0,1,.48-.4.88.88,0,0,1,.15,0,1.05,1.05,0,0,1,.41-.14l.18,0a1.31,1.31,0,0,1,1.1.5,2.44,2.44,0,0,1,.41,1.54,2.07,2.07,0,0,1,0,.25l-1.72,0h0l-1.72,0A3.41,3.41,0,0,1,181.61,108Z"/><polygon class="cls-12" points="160.35 110.1 157.32 110.21 157.88 106.75 155.7 106.83 154.2 116.2 156.37 116.12 157 112.18 160.04 112.06 159.41 116 161.59 115.92 163.09 106.55 160.91 106.63 160.35 110.1"/><polygon class="cls-12" points="173.41 115.51 175.59 115.43 177.1 106.06 174.92 106.14 173.41 115.51"/><path class="cls-12" d="M149.8,111.11l-1.23.07h0l-1.25.07.57-3.89-2.19.13-1.37,9.4,4.22-.25h0l.86,0a3.31,3.31,0,0,0,2.41-1,3.18,3.18,0,0,0,.75-2.32,2.12,2.12,0,0,0-.74-1.69A2.92,2.92,0,0,0,149.8,111.11Zm.14,3.55a1.57,1.57,0,0,1-.55.25h0a4.47,4.47,0,0,1-.86.15l-.25,0-1.56.08.34-2.38,1.18-.07h.32a3.16,3.16,0,0,1,1.35.17.85.85,0,0,1,.46.81A1.1,1.1,0,0,1,149.94,114.66Z"/></g></g></g></svg>