<svg id="Layer_1" data-name="Layer 1" xmlns="http://www.w3.org/2000/svg" viewBox="0 0 588.24 133.76"><path d="M103.59,107.35,81.25,96.18l8.38-33.51-39.1,58.65L22.61,110.15,31,76.64,3.42,113.42A26.47,26.47,0,0,0,9.79,124c9.8,9.8,25.56,9.8,57.09,9.8s47.29,0,57.08-9.8c8.66-8.66,9.66-22,9.78-46.76Z"/><path d="M36.57,32,58.91,43.13,53.33,71.05,95.21,12.41l27.93,11.17-8.38,36.3,18.77-16.42C133,26.82,131,16.79,124,9.79,114.17,0,98.41,0,66.88,0S19.59,0,9.79,9.79,0,35.35,0,66.88c0,3.33,0,6.48,0,9.47Z"/><path d="M272.56,102.34H266V93.07H245.86v9.27h-6.52V87.05h2.85a43.28,43.28,0,0,0,2.55-8.25c.61-3.06,1.12-6.22,1.43-9.37a80.54,80.54,0,0,0,.61-9.79c.1-3.36.2-6.62.2-9.78v-4h21.91V87.05h3.77v15.29Zm31.79-12.53a18.17,18.17,0,0,1-11.62,3.87,13.56,13.56,0,0,1-11.51-5.61C278.37,84.3,277,78.7,277,71.46A68.22,68.22,0,0,1,277.75,61a34.79,34.79,0,0,1,2.55-8.26,15.3,15.3,0,0,1,4.49-5.5,10.65,10.65,0,0,1,6.42-1.93,11.5,11.5,0,0,1,5.29,1.22,9.58,9.58,0,0,1,4.08,3.77,20.24,20.24,0,0,1,2.65,6.83,47.33,47.33,0,0,1,.92,10.08v4H284.58c0,5.4.72,9.37,2.14,12.12a7.11,7.11,0,0,0,6.63,4.08,12.85,12.85,0,0,0,5.4-1,22,22,0,0,0,3.87-2.14ZM235.06,45.89V93.07h-7.23V71.87H216.92v21.2h-7.33V45.89h7.33v20h10.91v-20Zm84,23.64V93.07h-7.33V45.89H319v21.8l11.31-21.8h7.44L326.05,68.1l13.35,25h-7.94Zm37.5,24.15a14,14,0,0,1-11.92-6c-2.85-4.08-4.28-10.19-4.28-18.24a43.17,43.17,0,0,1,1-10,24.12,24.12,0,0,1,3.16-7.54A14.81,14.81,0,0,1,349.69,47,14.52,14.52,0,0,1,357,45.28a14.89,14.89,0,0,1,5.2.71,14.68,14.68,0,0,1,3.56,1.73l-1,6.93a12.4,12.4,0,0,0-3.57-2.24,8.78,8.78,0,0,0-4.18-1c-2.65,0-4.79,1.43-6.42,4.38s-2.55,7.44-2.55,13.35.72,10.5,2,13.76,3.67,4.79,6.63,4.79a12.8,12.8,0,0,0,4.68-.82,13.35,13.35,0,0,0,3.26-2l1.74,5.4a19.4,19.4,0,0,1-4.18,2.65A18.77,18.77,0,0,1,356.52,93.68ZM261.66,51.8H253.5v.81c0,2.45-.1,5.2-.2,8.26a88.92,88.92,0,0,1-.61,9,89.61,89.61,0,0,1-1.33,9.07A47.06,47.06,0,0,1,249,87.05h12.53V51.8Zm29.55-.61c-2.25,0-3.88,1.32-4.79,3.87a34.82,34.82,0,0,0-1.74,10.09h12a43.54,43.54,0,0,0-.31-5.51,23.34,23.34,0,0,0-.91-4.48,5.67,5.67,0,0,0-1.74-2.85A3.28,3.28,0,0,0,291.21,51.19Z"/><path d="M395.24,45.79c-.51-1.74-.91-3.37-1.32-4.9s-.61-3.15-.92-4.68h-.3c.2,3.16.3,6.52.3,9.88V93h-4.07V26.12h5.4l11.31,42.8c.2.91.51,2.14.71,3.66a35,35,0,0,1,.61,4.08h.31c.2-1.22.4-2.65.71-4.08s.61-2.75.82-3.66l11.41-42.8h5.19V93.07h-4.48V46.19c0-1.63,0-3.26.1-4.89s.21-3.36.31-5.09h-.41c-.41,1.83-.81,3.56-1.22,5s-.61,2.85-1,4.28l-10,37.29H405Z"/><path d="M445.38,90.42a7,7,0,0,0,5.5-2.75,21.41,21.41,0,0,0,3.67-6.53v-13h-5.1c-4,0-6.82.92-8.66,2.85s-2.85,4.9-2.85,9c0,3.36.61,5.91,1.93,7.75A6.7,6.7,0,0,0,445.38,90.42Zm10.49,2.65c-.2-.62-.41-1.43-.61-2.35s-.3-2.34-.51-4a15.91,15.91,0,0,1-4.18,5.3A9.54,9.54,0,0,1,444.46,94a9.66,9.66,0,0,1-7.74-3.56c-2-2.45-3-5.81-3-10.09,0-5.1,1.33-8.87,4.08-11.41s6.62-4,11.71-4h5.2V59c0-3.67-.61-6.21-1.93-7.84a7.14,7.14,0,0,0-5.91-2.45,12.27,12.27,0,0,0-9.89,5.2l-1.22-4.18A11.76,11.76,0,0,1,440,46.5,14.76,14.76,0,0,1,446.91,45c4,0,6.92,1.12,9,3.36S459,53.94,459,58.62V84.4a41.15,41.15,0,0,0,.31,5,20.17,20.17,0,0,0,.71,3.77h-4.18v-.1Z"/><path d="M482.06,90.42c3,0,5.4-1.74,7.23-5.3s2.76-9.17,2.76-16.71c0-6.22-.82-11.11-2.35-14.47s-3.67-5.2-6.42-5.2a6.48,6.48,0,0,0-3,.82,15.69,15.69,0,0,0-2.76,2,25.15,25.15,0,0,0-2.24,3.06,16.56,16.56,0,0,0-1.73,3.57V84.61A10.73,10.73,0,0,0,477,88.89,7.77,7.77,0,0,0,482.06,90.42Zm-.31,3.46a11.63,11.63,0,0,1-5-1.12,12.28,12.28,0,0,1-3.46-3v17.83h-4.38V45.89h3.87l.4,7.74a20.6,20.6,0,0,1,4.18-6,8.73,8.73,0,0,1,6.52-2.75,8.62,8.62,0,0,1,5.2,1.73,14.56,14.56,0,0,1,4,4.79,29.75,29.75,0,0,1,2.44,7.34,44.66,44.66,0,0,1,.82,9.37c0,8.66-1.33,15.18-4.08,19.46S486.14,93.88,481.75,93.88Z"/><path d="M509.16,93.07h-4.38V45.89h4.38V68.1L525,45.89h4.28L513.75,67.8l16.61,25.27h-4.89L509.06,68.61l.1,24.46Z"/><path d="M536.68,70.24c.1,6.52,1,11.41,2.75,14.88s4.28,5.09,7.64,5.09a10.06,10.06,0,0,0,4.08-.71,13.27,13.27,0,0,0,3-1.73,11.9,11.9,0,0,0,2.45-2.55L558,88.79a11.76,11.76,0,0,1-2.75,2.75,11.11,11.11,0,0,1-3.46,1.73,13.22,13.22,0,0,1-15.9-5.6c-2.34-4.28-3.56-10.3-3.56-18a44.72,44.72,0,0,1,1-10.29,28.92,28.92,0,0,1,2.86-7.75,14.41,14.41,0,0,1,4.38-4.79,10,10,0,0,1,5.5-1.73,9.44,9.44,0,0,1,5.5,1.63,12,12,0,0,1,4.08,4.79,23.75,23.75,0,0,1,2.24,7.95,47.68,47.68,0,0,1,.1,10.9H536.68Zm9.47-21.7c-2.44,0-4.68,1.52-6.42,4.68s-2.75,7.54-2.85,13.45H554q.62-9.47-1.83-13.75C550.43,50.06,548.5,48.54,546.15,48.54Z"/><path d="M577.44,49.56V93.07h-4.39V49.56h-10.9V45.89h26.09v3.67Z"/><path d="M187.17,67.39,175.76,93.07H167.4l12.53-27.41a18.26,18.26,0,0,1-7.13-6.53q-2.75-4.43-2.75-11.92A25.43,25.43,0,0,1,171.58,38a18.76,18.76,0,0,1,4.18-6.62,18.55,18.55,0,0,1,6.31-4,20.62,20.62,0,0,1,7.44-1.32h10.8V93.07h-7.23V67.39Zm6-35.16h-3.87a11.69,11.69,0,0,0-4.18.82,9.55,9.55,0,0,0-3.67,2.55,14,14,0,0,0-2.65,4.58,22.68,22.68,0,0,0-.91,7,25.34,25.34,0,0,0,.81,6.73,12,12,0,0,0,2.45,4.38,8.91,8.91,0,0,0,3.66,2.44,16.39,16.39,0,0,0,4.49.62h3.87V32.23Z"/></svg>